<svg width="587" height="584" viewBox="0 0 587 584" fill="none" xmlns="http://www.w3.org/2000/svg">
<path fill-rule="evenodd" clip-rule="evenodd" d="M0 462.455C0 462.455 0.130456 382.93 0.130456 387.616C0.130456 436.201 111.592 476.369 255.648 482.412C265.533 482.934 277.894 483.198 293.124 483.198H293.384C308.614 483.198 320.975 482.934 330.86 482.412C474.917 476.369 586.378 436.201 586.378 387.616C586.378 382.93 586.508 462.455 586.508 462.455H586.472C586.434 473.269 586.378 482.986 586.378 487.672C586.378 536.258 474.917 576.425 330.86 582.468C320.975 582.99 308.614 583.254 293.384 583.254H293.124C277.894 583.254 265.533 582.99 255.648 582.468C111.592 576.425 0.130456 536.258 0.130456 487.672C0.130456 482.986 0.074159 473.269 0.0357362 462.455H0Z" fill="url(#paint0_linear_2_27)"/>
<path fill-rule="evenodd" clip-rule="evenodd" d="M0.406616 316.031C0.406616 316.031 0.537072 236.506 0.537072 241.192C0.537072 289.778 111.998 329.945 256.054 335.988C265.941 336.51 278.3 336.775 293.531 336.775H293.791C309.021 336.775 321.381 336.51 331.268 335.988C475.324 329.945 586.785 289.778 586.785 241.192C586.785 236.506 586.915 316.031 586.915 316.031H586.879C586.84 326.845 586.785 336.563 586.785 341.249C586.785 389.834 475.324 430.002 331.268 436.045C321.381 436.567 309.021 436.83 293.791 436.83H293.531C278.3 436.83 265.941 436.567 256.054 436.045C111.998 430.002 0.537072 389.834 0.537072 341.249C0.537072 336.563 0.480775 326.845 0.442352 316.031H0.406616Z" fill="url(#paint1_linear_2_27)"/>
<path fill-rule="evenodd" clip-rule="evenodd" d="M0.523669 93.1415C0.523669 144.548 131.672 179.688 293.458 179.688C455.242 179.688 586.79 144.548 586.79 93.1415C586.79 94.8482 586.915 170.827 586.915 170.827H586.879C586.84 181.642 586.785 191.359 586.785 196.045C586.785 244.63 475.324 284.798 331.268 290.841C321.381 291.363 309.021 291.627 293.791 291.627H293.531C278.3 291.627 265.941 291.363 256.054 290.841C111.998 284.798 0.537072 244.63 0.537072 196.045C0.537072 191.359 0.480775 181.642 0.442352 170.827H0.406616C0.406616 170.827 0.523669 94.8383 0.523669 93.1415Z" fill="url(#paint2_linear_2_27)"/>
<path d="M293.657 186.283C455.55 186.283 586.79 144.582 586.79 93.1415C586.79 41.7009 455.55 0 293.657 0C131.764 0 0.523682 41.7009 0.523682 93.1415C0.523682 144.582 131.764 186.283 293.657 186.283Z" fill="url(#paint3_linear_2_27)"/>
<path fill-rule="evenodd" clip-rule="evenodd" d="M0 462.455C0 462.455 0.130456 382.93 0.130456 387.616C0.130456 436.201 111.592 476.369 255.648 482.412C265.533 482.934 277.894 483.198 293.124 483.198H293.384C308.614 483.198 320.975 482.934 330.86 482.412C474.917 476.369 586.378 436.201 586.378 387.616C586.378 382.93 586.508 462.455 586.508 462.455H586.472C586.434 473.269 586.378 482.986 586.378 487.672C586.378 536.258 474.917 576.425 330.86 582.468C320.975 582.99 308.614 583.254 293.384 583.254H293.124C277.894 583.254 265.533 582.99 255.648 582.468C111.592 576.425 0.130456 536.258 0.130456 487.672C0.130456 482.986 0.074159 473.269 0.0357362 462.455H0Z" fill="url(#paint4_linear_2_27)"/>
<path fill-rule="evenodd" clip-rule="evenodd" d="M0.406616 316.031C0.406616 316.031 0.537072 236.506 0.537072 241.192C0.537072 289.778 111.998 329.945 256.054 335.988C265.941 336.51 278.3 336.775 293.531 336.775H293.791C309.021 336.775 321.381 336.51 331.268 335.988C475.324 329.945 586.785 289.778 586.785 241.192C586.785 236.506 586.915 316.031 586.915 316.031H586.879C586.84 326.845 586.785 336.563 586.785 341.249C586.785 389.834 475.324 430.002 331.268 436.045C321.381 436.567 309.021 436.83 293.791 436.83H293.531C278.3 436.83 265.941 436.567 256.054 436.045C111.998 430.002 0.537072 389.834 0.537072 341.249C0.537072 336.563 0.480775 326.845 0.442352 316.031H0.406616Z" fill="url(#paint5_linear_2_27)"/>
<path fill-rule="evenodd" clip-rule="evenodd" d="M0.523669 93.1415C0.523669 144.548 131.672 179.688 293.458 179.688C455.242 179.688 586.79 144.548 586.79 93.1415C586.79 94.8482 586.915 170.827 586.915 170.827H586.879C586.84 181.642 586.785 191.359 586.785 196.045C586.785 244.63 475.324 284.798 331.268 290.841C321.381 291.363 309.021 291.627 293.791 291.627H293.531C278.3 291.627 265.941 291.363 256.054 290.841C111.998 284.798 0.537072 244.63 0.537072 196.045C0.537072 191.359 0.480775 181.642 0.442352 170.827H0.406616C0.406616 170.827 0.523669 94.8383 0.523669 93.1415Z" fill="url(#paint6_linear_2_27)"/>
<path d="M293.657 186.283C455.55 186.283 586.79 144.582 586.79 93.1415C586.79 41.7009 455.55 0 293.657 0C131.764 0 0.523682 41.7009 0.523682 93.1415C0.523682 144.582 131.764 186.283 293.657 186.283Z" fill="url(#paint7_linear_2_27)"/>
<path d="M313.047 127.371C312.889 127.503 312.828 127.719 312.896 127.915C313.525 129.745 315.459 128.765 317.056 128.554C320.99 128.037 347.317 123.921 356.531 122.382C359.628 121.865 372.888 119.602 378.658 118.983C379.162 118.929 379.346 118.438 379.409 118.009C379.451 117.869 379.427 117.718 379.345 117.595C379.264 117.474 379.133 117.395 378.988 117.379C374.504 116.826 369.96 115.757 365.571 114.746C363.993 114.382 345.411 109.535 337.797 107.134C336.56 106.744 334.578 106.056 332.509 105.263C331.713 104.87 331.302 103.972 331.527 103.114C331.75 102.255 332.547 101.671 333.434 101.717C339.346 102.178 345.642 102.849 346.888 102.904C361.666 103.557 376.215 103.562 390.884 101.183C392.667 100.893 402.736 98.9925 405.951 98.157C408.02 97.6191 415.211 95.4316 416.748 94.7874C424.625 91.4803 435.874 85.4533 433.514 75.1694C432.893 72.4637 430.829 70.0145 428.85 68.1871C424.986 64.6254 420.443 61.9493 415.594 59.9486C413.006 58.8817 410.428 57.5967 407.758 56.7559C406.188 56.2618 399.831 54.1914 398.116 53.7393C394.641 52.8225 386 50.9657 385.158 50.8281C382.005 50.3125 373.346 48.9918 372.2 48.7398C368.581 47.9446 352.832 46.9036 348.696 46.4899C345.053 46.1262 331.21 44.6474 327.903 44.4052C317.272 43.626 306.614 42.4769 295.961 41.7469C288.33 41.2241 280.66 40.9748 273.06 40.1608C266.101 39.4165 259.181 38.7713 252.267 37.7259C250.775 37.5007 249.223 37.3586 247.747 37.0441C245.61 36.5884 243.156 36.3149 241.118 35.5501C239.739 35.0327 237.123 34.0292 235.625 34.3706C234.488 34.6288 234.454 36.2899 234.054 37.2005C233.106 39.3504 231.385 41.0177 229.666 42.5734C224.579 47.1743 218.745 50.2848 213.092 54.0609C211.225 55.3092 203.387 59.9638 201.34 61.1459C194.057 65.3519 186.72 69.96 180.246 75.3454C176.509 78.455 172.492 81.9649 170.163 86.3183C166.291 93.5596 168.763 100.545 174.521 105.879C181.726 112.552 192.829 116.205 202.244 118.366C218.538 122.107 235.285 123.347 251.965 122.205C261.468 121.555 270.979 120.92 280.292 118.705C286.682 117.186 293.26 115.273 299.276 112.597C301.887 111.435 304.157 109.907 306.637 108.568C309.112 107.231 311.173 105.871 313.436 104.187C314.213 103.608 315.822 102.565 316.887 102.803C318.844 103.242 319.057 103.793 319.064 108.189C319.072 113.352 314.523 125.378 313.047 127.371Z" fill="black"/>
<defs>
<linearGradient id="paint0_linear_2_27" x1="0" y1="329.86" x2="586.508" y2="329.86" gradientUnits="userSpaceOnUse">
<stop stop-color="#B9B9B9"/>
<stop offset="0.55" stop-color="#EBEBEB"/>
<stop offset="1" stop-color="white"/>
</linearGradient>
<linearGradient id="paint1_linear_2_27" x1="0.406616" y1="183.436" x2="586.915" y2="183.436" gradientUnits="userSpaceOnUse">
<stop stop-color="#B9B9B9"/>
<stop offset="0.55" stop-color="#EBEBEB"/>
<stop offset="1" stop-color="white"/>
</linearGradient>
<linearGradient id="paint2_linear_2_27" x1="-0.203682" y1="329.86" x2="586.304" y2="329.86" gradientUnits="userSpaceOnUse">
<stop stop-color="#B9B9B9"/>
<stop offset="0.55" stop-color="#EBEBEB"/>
<stop offset="1" stop-color="white"/>
</linearGradient>
<linearGradient id="paint3_linear_2_27" x1="0.523682" y1="93.1415" x2="586.789" y2="93.1415" gradientUnits="userSpaceOnUse">
<stop stop-color="#F5F5F5"/>
<stop offset="1" stop-color="#D5D5D5"/>
</linearGradient>
<linearGradient id="paint4_linear_2_27" x1="0" y1="329.86" x2="586.508" y2="329.86" gradientUnits="userSpaceOnUse">
<stop stop-color="#B9B9B9"/>
<stop offset="0.55" stop-color="#EBEBEB"/>
<stop offset="1" stop-color="white"/>
</linearGradient>
<linearGradient id="paint5_linear_2_27" x1="0.406616" y1="183.436" x2="586.915" y2="183.436" gradientUnits="userSpaceOnUse">
<stop stop-color="#B9B9B9"/>
<stop offset="0.55" stop-color="#EBEBEB"/>
<stop offset="1" stop-color="white"/>
</linearGradient>
<linearGradient id="paint6_linear_2_27" x1="-0.203682" y1="329.86" x2="586.304" y2="329.86" gradientUnits="userSpaceOnUse">
<stop stop-color="#B9B9B9"/>
<stop offset="0.55" stop-color="#EBEBEB"/>
<stop offset="1" stop-color="white"/>
</linearGradient>
<linearGradient id="paint7_linear_2_27" x1="0.523682" y1="93.1415" x2="586.789" y2="93.1415" gradientUnits="userSpaceOnUse">
<stop stop-color="#F5F5F5"/>
<stop offset="1" stop-color="#D5D5D5"/>
</linearGradient>
</defs>
</svg>
